# xmcd
#
# Track frame offsets:
# 182
# 17547
# 33957
# 50205
# 65677
# 83172
# 100305
# 116895
# 135385
# 152337
# 169507
# 187097
# 203982
# 221772
#
# Disc length: 3201 seconds
#
#
# Revision: 4
# Processed by: cddbd v1.5.2PL0 Copyright (c) Steve Scherf et al.
# Submitted via: FreeRIP 2.951 
#
DISCID=c30c7f0e
DTITLE=Wolfgang Petry - Wolfgang Petry - 1998 - Die großen Erfolge - CD2
DYEAR=1900
DGENRE=Schlager, dt.
TTITLE0=Ich brauch' ne Dosis Liebe
TTITLE1=Alles ist möglich
TTITLE2=Ich will noch mehr
TTITLE3=Lieben oder hassen
TTITLE4=Meine wilden Jahre
TTITLE5=Könnt' ich noch einmal mit Dir leben
TTITLE6=Was ist denn schon dabei
TTITLE7=Du willst leben wie es Dir gefällt
TTITLE8=Gnadenlos
TTITLE9=Du gehörst zu mir
TTITLE10=Da kannst nur Du sein
TTITLE11=Nur für Dich will ich da sein
TTITLE12=Ich wünsch Dir viel Glück auf Deiner Reise
TTITLE13=Mein kleine Welt
EXTD=
EXTT0=
EXTT1=
EXTT2=
EXTT3=
EXTT4=
EXTT5=
EXTT6=
EXTT7=
EXTT8=
EXTT9=
EXTT10=
EXTT11=
EXTT12=
EXTT13=
PLAYORDER=
